# xmcd
#
# Track frame offsets:
#  150
#  20677
#  43635
#  60842
#  81430
#  88437
#  116210
#  136162
#  142827
#  161627
#
# Disc length: 2286 seconds
#
# Revision: 0
# Processed by: cddbd v1.5.1PL0 Copyright (c) Steve Scherf et al.
# Submitted via: Collectorz.com Music Collector 6.9
#
DISCID=8508ec0a
DTITLE=Steve Robbins - Emerald Dance
DYEAR=1989
DGENRE=Jazz/Rock - Newage
TTITLE0=Hoedown
TTITLE1=You Dont Want To Play Here
TTITLE2=Grusin
TTITLE3=Emerald Dance
TTITLE4=Thought Star
TTITLE5=Smart Pills
TTITLE6=Pamsong
TTITLE7=Thought Star II
TTITLE8=Desert Dreams
TTITLE9=Hoedown-Reprise
EXTD=
EXTT0=
EXTT1=
EXTT2=
EXTT3=
EXTT4=
EXTT5=
EXTT6=
EXTT7=
EXTT8=
EXTT9=
PLAYORDER=
